<svg version="1.1" viewBox="0 0 64 64" xml:space="preserve" xmlns="http://www.w3.org/2000/svg"><path transform="matrix(1.25,0,0,-1.25,0,64)" d="m25.6 43.2c-3.5257 0-6.4-2.8724-6.4-6.3969 0-3.5245 2.8733-6.4031 6.4-6.4031 3.5267 0 6.4 2.8787 6.4 6.4031 0 3.5245-2.8743 6.3969-6.4 6.3969zm0-1.6c2.6621 0 4.8-2.1369 4.8-4.7969 0-2.66-2.1389-4.8031-4.8-4.8031-2.6611 0-4.8 2.1431-4.8 4.8031 0 2.66 2.1379 4.7969 4.8 4.7969zm-11.2-9.6c-3.5257 0-6.4-2.8724-6.4-6.3969s2.8733-6.4031 6.4-6.4031c3.5267 0 6.4 2.8787 6.4 6.4031 0 3.5245-2.8743 6.3969-6.4 6.3969zm22.4 0c-3.5257 0-6.4-2.8724-6.4-6.3969s2.8733-6.4031 6.4-6.4031c3.5267 0 6.4 2.8787 6.4 6.4031 0 3.5245-2.8743 6.3969-6.4 6.3969zm-22.4-1.6c2.6621 0 4.8-2.1369 4.8-4.7969 0-2.66-2.1389-4.8031-4.8-4.8031-2.6611 0-4.8 2.1431-4.8 4.8031s2.1379 4.7969 4.8 4.7969zm22.4 0c2.6621 0 4.8-2.1369 4.8-4.7969 0-2.66-2.1389-4.8031-4.8-4.8031-2.6611 0-4.8 2.1431-4.8 4.8031s2.1379 4.7969 4.8 4.7969zm-11.197-9.6c-3.534 0-6.4031-2.8641-6.4031-6.4 0-3.5359 2.8692-6.4 6.4031-6.4s6.3969 2.8641 6.3969 6.4c0 3.5359-2.8629 6.4-6.3969 6.4z"/></svg>
