<svg version="1.1" viewBox="0 0 64 64" xml:space="preserve" xmlns="http://www.w3.org/2000/svg"><path d="m27.795 10.842-0.095703 1.1914c-0.49642 6.2075-0.51695 11.239 0 18.154l0.042969 0.58203 0.5293 0.24805c5.1544 2.4232 5.7113 2.546 12.344 3.0918l1.0977 0.089844-0.015625-1.1016c-0.09882-6.4638-0.0968-13.437 0-18.967l0.015625-0.95508-0.95312-0.060547c-5.8497-0.37277-6.0194-0.44836-11.809-1.9707l-1.1562-0.30273zm1.8477 2.5254c3.9998 1.0415 5.8364 1.3682 10.055 1.6543-0.07846 5.0759-0.07764 11.137 0 16.967-4.8117-0.4023-6.0336-0.68423-10.029-2.5566-0.42828-6.0368-0.40841-10.694-0.025391-16.064zm-8.2285 21.568-0.45898 0.50391c-2.3051 2.5398-2.8303 5.6333-2.6582 8.1406 0.08606 1.2536 0.34049 2.3716 0.64258 3.2598 0.30208 0.88819 0.53737 1.4858 1.0625 1.9922l0.18945 0.18359 0.25586 0.066406c11.5 2.9476 15.695 3.6572 24.205 4.0293l1.0801 0.046875-0.03711-1.0801-0.43945-12.857-0.90234-0.060547s-14.556-1.0328-22.301-3.9824l-0.63867-0.24219z"/></svg>
