<svg version="1.1" viewBox="0 0 64 64" xml:space="preserve" xmlns="http://www.w3.org/2000/svg"><path d="m36.204 10.842 0.0957 1.1914c0.49642 6.2075 0.51695 11.239 0 18.154l-0.04297 0.58203-0.5293 0.24805c-5.1544 2.4232-5.7113 2.546-12.344 3.0918l-1.0977 0.08984 0.01563-1.1016c0.09882-6.4638 0.0968-13.437 0-18.967l-0.01563-0.95508 0.95312-0.06055c5.8497-0.37278 6.0194-0.44836 11.809-1.9707l1.1562-0.30273zm6.3809 24.094 0.45898 0.50391c2.3051 2.5398 2.8303 5.6333 2.6582 8.1406-0.08606 1.2536-0.34049 2.3716-0.64258 3.2598-0.30208 0.88819-0.53737 1.4858-1.0625 1.9922l-0.18945 0.18359-0.25586 0.06641c-11.5 2.9476-15.695 3.6572-24.205 4.0293l-1.0801 0.04687 0.03711-1.0801 0.43945-12.857 0.90234-0.06055s14.556-1.0328 22.301-3.9824l0.63867-0.24219zm-0.75 2.3418c-7.9747 2.7994-19.76 3.6893-21.152 3.7852l-0.3418 9.9473c7.489-0.37719 11.817-1.0924 22.344-3.7812 0.03426-0.07606 0.26769-0.4076 0.48047-1.0332 0.24655-0.72491 0.46802-1.6905 0.54102-2.7539 0.13511-1.9682-0.33835-4.2071-1.8711-6.1641z"/></svg>
