<svg version="1.1" viewBox="0 0 64 64" xml:space="preserve" xmlns="http://www.w3.org/2000/svg"><path d="m32.004 10c-4.4056 0-8.0039 3.5916-8.0039 8 0 4.4084 3.5983 8 8.0039 8 4.4056 0 7.9961-3.5929 7.9961-8 0-4.4071-3.5905-8-7.9961-8zm0 2c3.325 0 5.9961 2.6723 5.9961 6 0 3.3277-2.6711 6-5.9961 6-3.325 0-6.0039-2.6736-6.0039-6 0-3.3264 2.6789-6 6.0039-6zm-14.004 12c-4.4199 0-8 3.5864-8 8.0039 0 4.4175 3.5801 7.9961 8 7.9961 4.4199 0 8-3.5786 8-7.9961 0-4.4175-3.5801-8.0039-8-8.0039zm28.004 0c-4.4056 0-8.0039 3.5916-8.0039 8 0 4.4084 3.5983 8 8.0039 8 4.4056 0 7.9961-3.5929 7.9961-8 0-4.4071-3.5905-8-7.9961-8zm0 2c3.325 0 5.9961 2.6723 5.9961 6 0 3.3277-2.6711 6-5.9961 6-3.325 0-6.0039-2.6736-6.0039-6 0-3.3264 2.6789-6 6.0039-6zm-14 12c-4.4056 0-8.0039 3.5916-8.0039 8 0 4.4084 3.5983 8 8.0039 8 4.4056 0 7.9961-3.5929 7.9961-8 0-4.4071-3.5905-8-7.9961-8zm0 2c3.325 0 5.9961 2.6723 5.9961 6 0 3.3277-2.6711 6-5.9961 6-3.325 0-6.0039-2.6736-6.0039-6 0-3.3264 2.6789-6 6.0039-6z"/></svg>
