<svg version="1.1" viewBox="0 0 64 64" xml:space="preserve" xmlns="http://www.w3.org/2000/svg"><path d="m32.004 10c-4.4175 0-8.0039 3.5801-8.0039 8 0 4.4199 3.5864 8 8.0039 8 4.4175 0 7.9961-3.5801 7.9961-8 0-4.4199-3.5786-8-7.9961-8zm-14.004 14c-4.4084 0-8 3.5983-8 8.0039 0 4.4056 3.5929 7.9961 8 7.9961 4.4071 0 8-3.5905 8-7.9961 0-4.4056-3.5916-8.0039-8-8.0039zm28 0c-4.4084 0-8 3.5983-8 8.0039 0 4.4056 3.5929 7.9961 8 7.9961 4.4071 0 8-3.5905 8-7.9961 0-4.4056-3.5916-8.0039-8-8.0039zm-28 2c3.3264 0 6 2.6789 6 6.0039 0 3.325-2.6723 5.9961-6 5.9961-3.3277 0-6-2.6711-6-5.9961 0-3.325 2.6736-6.0039 6-6.0039zm28 0c3.3264 0 6 2.6789 6 6.0039 0 3.325-2.6723 5.9961-6 5.9961-3.3277 0-6-2.6711-6-5.9961 0-3.325 2.6736-6.0039 6-6.0039zm-14 12c-4.4084 0-8 3.5983-8 8.0039 0 4.4056 3.5929 7.9961 8 7.9961 4.4071 0 8-3.5905 8-7.9961 0-4.4056-3.5916-8.0039-8-8.0039zm0 2c3.3264 0 6 2.6789 6 6.0039 0 3.325-2.6723 5.9961-6 5.9961-3.3277 0-6-2.6711-6-5.9961 0-3.325 2.6736-6.0039 6-6.0039z"/></svg>
