<svg version="1.1" viewBox="0 0 64 64" xml:space="preserve" xmlns="http://www.w3.org/2000/svg"><path d="m36.205 10.842-1.1562 0.30273c-5.7892 1.5223-5.9589 1.5979-11.809 1.9707l-0.95312 0.060547 0.015625 0.95508c0.0968 5.5302 0.09882 12.503 0 18.967l-0.015625 1.1016 1.0977-0.089844c6.6324-0.54575 7.1894-0.66862 12.344-3.0918l0.5293-0.24805 0.042969-0.58203c0.51695-6.915 0.49642-11.947 0-18.154l-0.095703-1.1914zm-1.8477 2.5254c0.38302 5.37 0.40289 10.028-0.025391 16.064-3.9957 1.8724-5.2176 2.1543-10.029 2.5566 0.07764-5.8299 0.07846-11.891 0-16.967 4.2183-0.28611 6.0549-0.61278 10.055-1.6543zm8.2285 21.568-0.63867 0.24219c-7.7451 2.9497-22.301 3.9824-22.301 3.9824l-0.90234 0.060547-0.47656 13.938 1.0801-0.046875c8.5097-0.37206 12.705-1.0817 24.205-4.0293l0.25586-0.066406 0.18945-0.18359c0.52513-0.50643 0.76042-1.104 1.0625-1.9922 0.30208-0.88819 0.55652-2.0061 0.64258-3.2598 0.17212-2.5073-0.35307-5.6008-2.6582-8.1406l-0.45898-0.50391z"/></svg>
