<svg width="512" height="512" version="1.1" viewBox="0 0 135.47 135.47" xmlns="http://www.w3.org/2000/svg"><path d="m35.189 33.867a1.323 1.323 0 0 0-1.3224 1.3224v28.342a1.323 1.323 0 0 0 1.3224 1.3224h28.342a1.323 1.323 0 0 0 1.3224-1.3224v-28.342a1.323 1.323 0 0 0-1.3224-1.3224h-28.342zm36.747 0a1.323 1.323 0 0 0-1.3224 1.3224v28.342a1.323 1.323 0 0 0 1.3224 1.3219h28.342a1.323 1.323 0 0 0 1.3224-1.3219v-28.342a1.323 1.323 0 0 0-1.3224-1.3224h-28.342zm1.3224 2.6443h25.697v25.697h-25.697v-25.697zm-38.069 34.102a1.323 1.323 0 0 0-1.3224 1.3219v28.342a1.323 1.323 0 0 0 1.3224 1.3219h28.342a1.323 1.323 0 0 0 1.3224-1.3219v-28.342a1.323 1.323 0 0 0-1.3224-1.3219h-28.342zm36.746 0a1.323 1.323 0 0 0-1.3219 1.3219v28.342a1.323 1.323 0 0 0 1.3219 1.3219h28.342a1.323 1.323 0 0 0 1.3219-1.3219v-28.342a1.323 1.323 0 0 0-1.3219-1.3219h-28.342z"/></svg>
