<svg width="512" height="512" version="1.1" viewBox="0 0 135.47 135.47" xmlns="http://www.w3.org/2000/svg"><path d="m76.399 33.89-41.218 4.901a1.4039 1.2468 48.391 0 0-1.3188 1.1715v55.228 0.31419a1.2468 1.4039 41.609 0 0 1.3188 1.171l41.218 4.901a1.4039 1.2468 48.391 0 0 1.3188-1.171v-3.4448l13.013 1.3942a1.3957 1.2542 48.058 0 0 1.3183-1.1844v-3.4907l8.2346 0.76429a1.3858 1.2631 47.652 0 0 1.3203-1.2035v-7.8977-43.117a1.2631 1.3858 42.348 0 0-1.3203-1.2041l-8.2346 0.76429v-3.4902a1.2542 1.3957 41.942 0 0-1.3183-1.187l-13.013 1.3942v-3.4422a1.2468 1.4039 41.609 0 0-1.3188-1.1715z"/></svg>