<svg width="512" height="512" version="1.1" viewBox="0 0 135.47 135.47" xmlns="http://www.w3.org/2000/svg"><path d="m67.747 33.868a1.323 1.323 0 0 0-0.87643 0.33176l-32.558 28.779a1.323 1.323 0 0 0-0.44545 0.99219v36.303a1.323 1.323 0 0 0 1.3224 1.324l25.289 0.00207a1.323 1.323 0 0 0 1.3245-1.3219v-16.44h11.861v16.439a1.323 1.323 0 0 0 1.3219 1.3224l25.291-0.00362a1.323 1.323 0 0 0 1.3224-1.3224v-36.303a1.323 1.323 0 0 0-0.44493-0.99219l-32.531-28.779a1.323 1.323 0 0 0-0.87592-0.33176z"/></svg>
