<svg width="1e3" height="500" version="1.1" viewBox="0 0 264.58 132.29" xmlns="http://www.w3.org/2000/svg"><path d="m229.05 32.302-41.217 4.901a1.2468 1.4039 41.609 0 0-0.00724 0.002067 1.4039 1.2468 48.391 0 0-1.3121 1.1689v55.229 0.31419a1.2468 1.4039 41.609 0 0 1.3188 1.171h0.00207l41.216 4.901a1.4039 1.2468 48.391 0 0 1.3188-1.1715v-3.4422l13.012 1.3937a1.3957 1.2542 48.058 0 0 1.3203-1.1844v-3.4933l8.2346 0.76429a1.3858 1.2631 47.652 0 0 1.3188-1.2035v-7.8977-43.115a1.2631 1.3858 42.348 0 0-1.3188-1.2041l-8.2346 0.7643v-3.4907a1.2542 1.3957 41.942 0 0-1.3203-1.1844l-13.012 1.3937v-3.4442a1.2468 1.4039 41.609 0 0-1.3183-1.1715h-5.2e-4zm-177.98 6.4089v40.781h3.3807l0.96583-3.6489h0.37569c0.82278 1.1447 1.9498 2.1285 3.3807 2.9512 1.4309 0.82278 3.2731 1.234 5.5268 1.234 2.361 0 4.4358-0.5545 6.2244-1.6635 1.7887-1.109 3.1662-2.7725 4.132-4.9904 1.0016-2.2179 1.5022-4.9725 1.5022-8.2636 0-4.9367-1.091-8.639-3.2732-11.107-2.1464-2.5041-5.0082-3.7564-8.5855-3.7564-2.2537 0-4.0959 0.41177-5.5268 1.2346-1.4309 0.82278-2.5579 1.8419-3.3807 3.0582h-0.2682c0.07155-0.60814 0.12546-1.4307 0.16123-2.4681 0.07155-1.0732 0.10697-2.2181 0.10697-3.4344v-9.927h-4.7222zm-11.429 1.2346c-0.78701 0-1.4488 0.25004-1.9854 0.75086-0.5366 0.46505-0.8046 1.2162-0.8046 2.2536 0 1.0016 0.26801 1.7533 0.8046 2.2541 0.5366 0.50082 1.1984 0.75086 1.9854 0.75086 0.71546 0 1.3413-0.25004 1.8779-0.75086 0.57237-0.50082 0.85886-1.2525 0.85886-2.2541 0-1.0374-0.28649-1.7886-0.85886-2.2536-0.53659-0.50082-1.1625-0.75086-1.8779-0.75086zm-29.889 1.234v38.313h21.571v-4.2928h-16.742v-34.02h-4.8297zm87.734 9.015c-1.3236 0-2.5399 0.26801-3.6489 0.8046-1.109 0.50082-2.0927 1.1986-2.9512 2.0929-0.85855 0.85855-1.5917 1.8243-2.1999 2.8975h-0.21497l-0.5364-5.2586h-3.8633v28.762h4.7217v-15.347c0-1.4667 0.21461-2.7903 0.64389-3.9708 0.46505-1.1805 1.0914-2.1822 1.8784-3.005 0.78701-0.85855 1.6814-1.5204 2.683-1.9854 1.0016-0.46505 2.0567-0.69712 3.1657-0.69712 0.50082 0 1.0194 0.035442 1.556 0.10697 0.57236 0.07155 1.0914 0.16088 1.5565 0.2682l0.59014-4.346c-0.46505-0.10732-1.0195-0.1792-1.6635-0.21497-0.60814-0.07155-1.1806-0.10697-1.7172-0.10697zm51.191 0c-1.3236 0-2.5399 0.26801-3.6489 0.8046-1.109 0.50082-2.0927 1.1986-2.9512 2.0929-0.85856 0.85855-1.5917 1.8243-2.1999 2.8975h-0.21446l-0.53691-5.2586h-3.8633v28.762h4.7222v-15.347c0-1.4667 0.21462-2.7903 0.64389-3.9708 0.46505-1.1805 1.0909-2.1822 1.8779-3.005 0.78701-0.85855 1.6814-1.5204 2.683-1.9854 1.0016-0.46505 2.0567-0.69712 3.1657-0.69712 0.50082 0 1.0199 0.035442 1.5565 0.10697 0.57237 0.07155 1.0909 0.16088 1.556 0.2682l0.59014-4.346c-0.46505-0.10732-1.0196-0.1792-1.6635-0.21497-0.60814-0.07155-1.1806-0.10697-1.7172-0.10697zm-32.625 0.053227c-1.8602 0-3.649 0.25056-5.3661 0.75138-1.7171 0.46505-3.2014 1.0375-4.4535 1.7172l1.4485 3.5414c1.1805-0.57237 2.4507-1.073 3.8101-1.5022 1.3594-0.46505 2.7903-0.69763 4.2928-0.69763 1.896 0 3.3623 0.46516 4.3997 1.3953 1.0374 0.9301 1.5565 2.5936 1.5565 4.9904v1.7167l-4.8834 0.16123c-4.6863 0.14309-8.156 1.0015-10.41 2.5756-2.2537 1.5382-3.3807 3.7383-3.3807 6.6001 0 1.9317 0.3938 3.5418 1.1808 4.8297 0.78701 1.2521 1.8601 2.1819 3.2194 2.79 1.3951 0.60814 2.9514 0.91209 4.6684 0.91209 1.6098 0 2.9688-0.1607 4.0778-0.48266 1.1447-0.32196 2.1464-0.82306 3.005-1.5028 0.89432-0.71546 1.7533-1.5919 2.5761-2.6293h0.21445l0.91209 4.0783h3.4344v-19.586c0-3.3627-0.841-5.8133-2.5223-7.3515-1.6813-1.5382-4.2746-2.3074-7.7804-2.3074zm-78.826 0.48318v28.762h4.7222v-28.762h-4.7222zm115.69 0 11.59 28.869-1.5022 3.8096c-0.3935 1.0374-0.87664 1.9318-1.449 2.683-0.57237 0.78701-1.2696 1.3774-2.0924 1.771-0.787 0.42928-1.7353 0.64389-2.8443 0.64389-0.60814 0-1.1981-0.03596-1.7704-0.10749-0.5366-0.07154-1.0018-0.14291-1.3953-0.21446v3.7558c0.46505 0.10732 1.0195 0.19717 1.6635 0.26872 0.64392 0.10732 1.3951 0.16071 2.2536 0.16071 1.8602 0 3.4344-0.37583 4.7222-1.1271 1.3236-0.71546 2.4326-1.7526 3.3269-3.112 0.9301-1.3236 1.7346-2.8798 2.4143-4.6684l12.396-32.732h-5.0979l-5.8487 16.313c-0.50082 1.4667-0.98396 2.933-1.449 4.3997-0.46504 1.4309-0.80493 2.5938-1.0196 3.4882h-0.21446c-0.14309-0.787-0.33972-1.5921-0.59014-2.4148-0.25041-0.85855-0.53691-1.735-0.85887-2.6293-0.28618-0.89433-0.6081-1.8247-0.96583-2.7905l-6.2244-16.366h-5.0441zm-89.021 3.4344c2.6472 0 4.5967 0.91184 5.8487 2.7363 1.2878 1.8244 1.9317 4.5435 1.9317 8.1566 0 3.5773-0.64384 6.3139-1.9317 8.2098-1.2521 1.896-3.1661 2.8438-5.7418 2.8438-3.148 0-5.3121-0.92982-6.4926-2.79-1.1447-1.896-1.7172-4.6151-1.7172-8.1566v-0.21446c0-2.4683 0.25055-4.4897 0.75138-6.0637 0.50082-1.6098 1.3413-2.7902 2.5218-3.5414 1.1805-0.78701 2.7906-1.1803 4.8297-1.1803zm57.791 11.268v2.5761c0 2.7903-0.80505 4.8651-2.4148 6.2244-1.6098 1.3236-3.6312 1.9854-6.0637 1.9854-1.5382 0-2.8079-0.37583-3.8096-1.1271-0.96587-0.75123-1.449-1.9316-1.449-3.5414 0-1.8244 0.67978-3.2374 2.0392-4.239 1.3951-1.0016 3.8817-1.5741 7.459-1.7172l4.239-0.16123z"/></svg>
