<svg width="512" height="512" version="1.1" viewBox="0 0 135.47 135.47" xmlns="http://www.w3.org/2000/svg"><path d="m62.633 33.748c-15.806 0-28.766 12.949-28.766 28.752 1e-6 15.803 12.959 28.752 28.766 28.752 5.4538 0 10.568-1.5421 14.929-4.2106l12.749 12.74a6.6146 6.6146 0 0 0 9.3534-0.002067 6.6146 6.6146 0 0 0-0.004134-9.3555l-12.68-12.673c2.7955-4.429 4.4189-9.6606 4.4189-15.251 0-15.803-12.959-28.752-28.766-28.752zm0 13.231c8.6614 0 15.537 6.8726 15.537 15.522-1e-6 8.6489-6.8756 15.524-15.537 15.524-8.6614 1e-6 -15.537-6.8747-15.537-15.524 0-8.6489 6.8756-15.522 15.537-15.522z"/></svg>
