<svg id="svg" version="1.1" viewBox="0 0 512 512" xmlns="http://www.w3.org/2000/svg"><path d="m224.98 128a5.0005 5.0005 0 0 0-4.9824 4.5801l-2.4766 29.377c-8.7418 3.5266-16.936 8.2257-24.381 13.98l-27.006-12.604a5.0005 5.0005 0 0 0-6.4356 2.0137l-31.02 53.271a5.0005 5.0005 0 0 0 1.4863 6.6348l24.443 16.822c-0.6631 4.6073-1.0946 9.2458-1.1152 13.902a5.0005 5.0005 0 0 0 0 0.02148c8.4e-4 4.6794 0.41468 9.3424 1.0644 13.975l-24.391 16.77a5.0005 5.0005 0 0 0-1.4883 6.6367l31.02 53.271a5.0005 5.0005 0 0 0 6.4375 2.0137l26.926-12.576c7.4728 5.7353 15.694 10.409 24.459 13.906l2.4766 29.424a5.0005 5.0005 0 0 0 4.9824 4.5801h62.039a5.0005 5.0005 0 0 0 4.9824-4.5801l2.4766-29.377c8.7418-3.5266 16.936-8.2257 24.381-13.98l27.006 12.604a5.0005 5.0005 0 0 0 6.4356-2.0137l31.02-53.271a5.0005 5.0005 0 0 0-1.4863-6.6348l-24.443-16.822c0.66311-4.6073 1.0946-9.2458 1.1152-13.902a5.0005 5.0005 0 0 0 0-0.00195 5.0005 5.0005 0 0 0 0-0.00195 5.0005 5.0005 0 0 0 0-0.00586 5.0005 5.0005 0 0 0 0-0.00195 5.0005 5.0005 0 0 0 0-0.00196 5.0005 5.0005 0 0 0 0-0.00586 5.0005 5.0005 0 0 0 0-0.00195c-8.4e-4 -4.6794-0.41467-9.3424-1.0644-13.975l24.391-16.77a5.0005 5.0005 0 0 0 1.4883-6.6367l-31.02-53.271a5.0005 5.0005 0 0 0-6.4375-2.0137l-26.926 12.576c-7.4728-5.7353-15.694-10.409-24.459-13.906l-2.4766-29.424a5.0005 5.0005 0 0 0-4.9824-4.5801h-62.039zm31.02 86.875c22.772 0 41.125 18.353 41.125 41.125 0 22.772-18.353 41.125-41.125 41.125s-41.125-18.353-41.125-41.125c0-22.772 18.353-41.125 41.125-41.125z"/></svg>
