<svg width="512" height="512" version="1.1" viewBox="0 0 135.47 135.47" xmlns="http://www.w3.org/2000/svg"><path d="m50.697 35.723a1.323 1.323 0 0 0-0.83199 0.38189l-16.933 16.934a1.323 1.323 0 0 0 0 1.8712l16.933 16.933a1.323 1.323 0 0 0 2.2577-0.93534v-9.2599h24.047s2.9278 0.083634 5.8084 1.5529c2.8806 1.4692 5.635 4.067 5.5976 9.8144-0.03731 5.7252-2.7984 8.3385-5.6622 9.8144-2.8638 1.4759-5.75 1.5725-5.75 1.5725h-42.297a1.323 1.323 0 0 0-1.3245 1.3219v12.702a1.323 1.323 0 0 0 1.3245 1.3219h42.332s6.6031 0.018373 13.256-3.3145c6.6529-3.3329 13.416-10.265 13.467-23.404 0.05103-13.278-6.7164-20.223-13.4-23.522-6.6838-3.2987-13.336-3.205-13.336-3.205h-24.063v-9.2614a1.323 1.323 0 0 0-0.81649-1.2206 1.323 1.323 0 0 0-0.60926-0.097152z"/></svg>
