<svg version="1.1" xmlns="http://www.w3.org/2000/svg"><path d="m366.38 700.9q33.452 0 66.108-6.3718 32.656-6.3718 64.515-20.708 28.673-11.151 55.753-29.47t49.382-42.213q23.894-22.301 42.213-49.382 18.319-27.08 29.47-55.753 14.337-31.859 20.708-64.515t6.3718-66.108-6.3718-66.108q-6.3718-32.656-20.708-64.515-11.151-28.673-29.47-55.753-18.319-27.08-42.213-49.382-22.301-23.894-49.382-42.213-27.08-18.319-55.753-29.47-31.859-14.337-64.515-20.708-32.656-6.3718-66.108-6.3718t-66.108 6.3718-64.515 20.708q-28.673 11.151-55.753 29.47-27.08 18.319-49.382 42.213-23.894 22.301-42.213 49.382-18.319 27.08-29.47 55.753-14.337 31.859-20.708 64.515-6.3718 32.656-6.3718 66.108t6.3718 66.108q6.3718 32.656 20.708 64.515 11.151 28.673 29.47 55.753 18.319 27.08 42.213 49.382 22.301 23.894 49.382 42.213t55.753 29.47q31.859 14.337 64.515 20.708 32.656 6.3718 66.108 6.3718zm0 31.859q-76.462 0-143.37-28.673-66.904-28.673-116.29-78.055-49.382-49.382-78.055-116.29t-28.673-143.37 28.673-143.37 78.055-116.29q49.382-49.382 116.29-78.055 66.904-28.673 143.37-28.673t143.37 28.673q66.904 28.673 116.29 78.055t78.055 116.29q28.673 66.904 28.673 143.37t-28.673 143.37q-28.673 66.904-78.055 116.29-49.382 49.382-116.29 78.055-66.904 28.673-143.37 28.673zm202.3-479.48q0-17.522-12.744-30.266-12.744-12.744-31.859-12.744h-186.38q-17.522 0-30.266 12.744-12.744 12.744-12.744 30.266v127.44q0 17.522 12.744 30.266 12.744 12.744 30.266 12.744h186.38q19.115 0 31.859-12.744 12.744-12.744 12.744-30.266zm-289.92 135.4q0 19.115 14.337 33.452 14.337 14.337 33.452 14.337h127.44v49.382q0 20.708-14.337 35.045t-33.452 14.337h-208.68q-20.708 0-35.045-14.337-14.337-14.337-14.337-35.045v-141.77q0-19.115 14.337-33.452 14.337-14.337 35.045-14.337h81.241z" /></svg>
