<svg version="1.1" xmlns="http://www.w3.org/2000/svg"><path d="m367.1 701.57q34.262 0 66.893-6.5262t63.63-19.579q29.368-11.421 55.472-30.999 26.105-19.579 50.578-40.789 22.842-22.842 40.789-50.578t30.999-55.472q13.052-30.999 19.579-63.63 6.5262-32.631 6.5262-66.893t-6.5262-65.262q-6.5262-30.999-19.579-65.262-11.421-29.368-30.999-55.472-19.579-26.105-40.789-48.946-22.842-24.473-50.578-42.42t-55.472-29.368q-30.999-14.684-63.63-21.21-32.631-6.5262-66.893-6.5262t-65.262 6.5262q-30.999 6.5262-65.262 21.21-29.368 9.7893-55.472 29.368-26.105 19.579-48.946 42.42-24.473 21.21-42.42 48.946t-29.368 55.472q-14.684 32.631-21.21 65.262-6.5262 32.631-6.5262 65.262t6.5262 66.893 21.21 63.63q9.7893 29.368 29.368 55.472 19.579 26.105 42.42 50.578 21.21 22.842 48.946 40.789t55.472 30.999q32.631 13.052 65.262 19.579 32.631 6.5262 65.262 6.5262zm0 32.631q-76.682 0-143.58-29.368-66.893-29.368-115.84-78.314-48.946-48.946-78.314-115.84-29.368-66.893-29.368-143.58 0-76.682 29.368-143.58 29.368-66.893 78.314-115.84 48.946-48.946 115.84-78.314 66.893-29.368 143.58-29.368 76.683 0 143.58 29.368 66.893 29.368 115.84 78.314 48.946 48.946 78.314 115.84 29.368 66.893 29.368 143.58 0 76.683-29.368 143.58-29.368 66.893-78.314 115.84t-115.84 78.314q-66.893 29.368-143.58 29.368zm-159.89-350.78h319.78v-32.631h-319.78zm1.6315 97.893h318.15v-32.631h-318.15zm-1.6315-195.79h319.78v-32.631h-319.78z" /></svg>
