<svg version="1.1" viewBox="0 0 820 526" xmlns="http://www.w3.org/2000/svg"><path d="m699 325q25 0 25-24v-275q0-26-25-26h-586q-25 0-25 26v275q0 24 25 24zm-668 151q0 24 31 24t32-19q0-13-24-18-38-9-44-12-24-11-24-38 0-46 58-46t60 49h-31q-2-22-31-22-26 0-26 17 0 13 23 19 41 9 45 11 25 11 25 36 0 49-61 49-64 0-64-50zm228-78h-80v32h74v27h-74v38h84v27h-115v-151h111zm62 97h75v27h-107v-151h32zm207-97h-80v32h74v27h-74v38h84v27h-115v-151h111zm127 22q-7-25-34-25-37 0-37 52t37 52q28 0 34-28h31q-10 55-66 55-69 0-69-79 0-35 18-57t51-23q26 0 45 14t21 39zm120 102h-32v-124h-46v-27h123v27h-45z" horiz-adv-x="938.7"/></svg>
