<svg version="1.1" xmlns="http://www.w3.org/2000/svg"><path d="m87 439q-16 0-16-18v-279q0-20 18-20 3 0 589 142 10 2 10 6-3 4-291 86-291 83-310 83zm-30 153q0 24 31 24t32-19q0-13-24-18-38-9-44-12-24-11-24-38 0-46 58-46t60 49h-31q-2-22-31-22-26 0-26 17 0 13 23 19 41 9 45 11 25 11 25 36 0 49-61 49-64 0-64-50zm182 46h-32v-124h-45v-27h122v27h-45zm86 0h-34l55-151h35l54 151h-34l-10-30h-56zm19-57h38l-19-60h-1zm111-94h76q48 0 48 43 0 28-24 36 20 9 20 36v16q0 14 7 16v4h-36q-1-20-3-39t-24-20h-33v59h-31zm68 67q24 0 24-21 0-19-21-19h-40v40zm148 84h-32v-124h-45v-27h123v27h-46z" /></svg>
